<svg width="179" height="42" viewBox="0 0 179 42" fill="none" xmlns="http://www.w3.org/2000/svg">
    <path d="M176.619 2.21497H2.38086V38.9901H176.619V2.21497Z" fill="#1C4DA1"/>
    <path d="M178.296 0H175.357H0V41.2043H179V0H178.296ZM176.618 38.9902H2.38011V2.21501H176.618V38.9902Z" fill="#EF3E33"/>
    <path d="M13.8122 13.678V15.8553C14.4617 14.9846 15.2085 14.3401 16.0499 13.9219C16.8913 13.5046 17.8526 13.295 18.932 13.295C20.4757 13.295 21.7965 13.5683 22.8935 14.113C23.9914 14.6586 24.9334 15.5117 25.7228 16.6733C26.4779 15.5352 27.3252 14.6879 28.2655 14.1314C29.2058 13.5741 30.2442 13.295 31.3823 13.295C33.7272 13.295 35.5265 14.0325 36.7803 15.5067C38.0332 16.9809 38.6609 19.0936 38.6609 21.845V32.8329H34.272V24.3525C34.272 21.752 33.9853 19.9845 33.4104 19.05C32.8355 18.1156 31.8399 17.648 30.4236 17.648C28.9486 17.648 27.8959 18.1734 27.2632 19.2235C26.6305 20.2745 26.3137 22.0763 26.3137 24.6299V32.832H21.8912V24.3525C21.8912 21.7637 21.5979 19.9996 21.0121 19.0593C20.4263 18.119 19.4013 17.6488 17.9389 17.6488C16.453 17.6488 15.3853 18.1743 14.735 19.2244C14.0846 20.2753 13.7594 22.0771 13.7594 24.6307V32.8329H9.4585V13.678H13.8122Z" fill="white"/>
    <path d="M57.2937 32.8337V30.4829C56.7591 31.4349 56.0073 32.1372 55.0385 32.5898C54.0689 33.0423 52.8294 33.2695 51.3208 33.2695C48.4882 33.2695 46.1223 32.3032 44.2241 30.3697C42.3267 28.4372 41.3772 26.0369 41.3772 23.1699C41.3772 21.8232 41.6152 20.5459 42.0912 19.3391C42.5673 18.1315 43.2469 17.0696 44.1294 16.1528C45.0806 15.1429 46.1366 14.397 47.2981 13.9152C48.4589 13.4333 49.7646 13.1927 51.2161 13.1927C52.609 13.1927 53.8082 13.4249 54.8122 13.8892C55.8162 14.3535 56.6258 15.0558 57.2418 15.9961V13.6797H61.5947V32.8353H57.2937V32.8337ZM45.9396 23.0987C45.9396 24.712 46.4768 26.0621 47.5504 27.1474C48.624 28.2327 49.933 28.7757 51.4767 28.7757C52.8813 28.7757 54.1175 28.2302 55.186 27.139C56.2537 26.0478 56.7876 24.7706 56.7876 23.3082C56.7876 21.7528 56.2504 20.4152 55.1768 19.2939C54.1024 18.1742 52.8461 17.6135 51.4072 17.6135C49.8978 17.6135 48.6097 18.1449 47.5412 19.2067C46.4735 20.2694 45.9396 21.5667 45.9396 23.0987Z" fill="white"/>
    <path d="M74.4464 17.5608C72.7166 17.6999 71.509 18.1533 70.8243 18.9193C70.1396 19.6853 69.7968 21.0672 69.7968 23.0635V32.8329H65.3391V13.678H69.5185V15.8897C70.1915 15.0307 70.9282 14.4013 71.7294 14.0007C72.5306 13.6001 73.4365 13.3998 74.4464 13.3998V17.5608Z" fill="white"/>
    <path d="M90.989 32.8337V30.4829C90.4543 31.4349 89.7025 32.1372 88.7337 32.5898C87.7649 33.0423 86.5246 33.2695 85.0161 33.2695C82.1834 33.2695 79.8184 32.3032 77.9202 30.3697C76.0219 28.4372 75.0732 26.0369 75.0732 23.1699C75.0732 21.8232 75.3113 20.5459 75.7873 19.3391C76.2633 18.1315 76.9421 17.0696 77.8255 16.1528C78.7767 15.1429 79.8335 14.397 80.9942 13.9152C82.1549 13.4333 83.4606 13.1927 84.9121 13.1927C86.305 13.1927 87.5034 13.4249 88.5074 13.8892C89.5114 14.3535 90.3219 15.0558 90.937 15.9961V13.6797H95.2899V32.8353H90.989V32.8337ZM79.6348 23.0987C79.6348 24.712 80.172 26.0621 81.2456 27.1474C82.3192 28.2327 83.6282 28.7757 85.1719 28.7757C86.5765 28.7757 87.8127 28.2302 88.8812 27.139C89.9489 26.0478 90.4836 24.7706 90.4836 23.3082C90.4836 21.7528 89.9456 20.4152 88.872 19.2939C87.7976 18.1742 86.5405 17.6135 85.1015 17.6135C83.593 17.6135 82.3032 18.1449 81.2355 19.2067C80.1695 20.2694 79.6348 21.5667 79.6348 23.0987Z" fill="white"/>
    <path d="M100.584 32.8337V17.6488H97.6582V13.6781H100.584V7.47888H105.042V13.6781H107.985V17.6488H105.042V32.8337H100.584Z" fill="white"/>
    <path d="M114.497 7.47888V15.8545C115.147 14.9838 115.893 14.3393 116.735 13.9211C117.577 13.5037 118.537 13.2942 119.616 13.2942C122.007 13.2942 123.842 14.0284 125.119 15.4967C126.396 16.9658 127.035 19.0811 127.035 21.8442V32.8321H122.577V24.3877C122.577 21.7637 122.285 19.9853 121.697 19.0509C121.111 18.1165 120.087 17.6488 118.624 17.6488C117.137 17.6488 116.07 18.1743 115.42 19.2244C114.77 20.2753 114.445 22.0772 114.445 24.6307V32.8329H110.145V7.47888H114.497Z" fill="white"/>
    <path d="M129.751 23.1683C129.751 21.8216 129.998 20.5418 130.491 19.3283C130.985 18.1156 131.701 17.0387 132.642 16.0984C133.605 15.1346 134.69 14.3946 135.898 13.8784C137.105 13.3621 138.359 13.1031 139.659 13.1031C141.042 13.1031 142.316 13.3328 143.482 13.7904C144.649 14.2496 145.72 14.9368 146.694 15.8537C147.693 16.8175 148.465 17.9287 149.011 19.1883C149.556 20.448 149.829 21.7394 149.829 23.0627C149.829 24.5252 149.59 25.8602 149.114 27.0678C148.639 28.2755 147.924 29.3658 146.972 30.3413C146.021 31.3277 144.935 32.0736 143.716 32.579C142.497 33.0843 141.173 33.3366 139.746 33.3366C138.306 33.3366 136.995 33.081 135.81 32.5706C134.627 32.0602 133.547 31.2934 132.571 30.2718C131.643 29.2736 130.94 28.1733 130.465 26.9723C129.989 25.7722 129.751 24.5034 129.751 23.1683ZM134.349 23.134C134.349 24.9098 134.836 26.3178 135.811 27.357C136.787 28.3962 138.11 28.9158 139.782 28.9158C141.431 28.9158 142.745 28.3853 143.726 27.3226C144.708 26.2608 145.198 24.8302 145.198 23.03C145.198 21.4168 144.685 20.0909 143.656 19.0517C142.629 18.0125 141.337 17.4929 139.782 17.4929C138.18 17.4929 136.874 18.0184 135.865 19.0685C134.853 20.1186 134.349 21.4738 134.349 23.134Z" fill="white"/>
    <path d="M157.003 13.678V15.8553C157.653 14.9846 158.398 14.3401 159.241 13.9219C160.083 13.5046 161.044 13.295 162.122 13.295C163.505 13.295 164.708 13.5565 165.736 14.0786C166.763 14.6008 167.62 15.3852 168.305 16.4294C168.745 17.1258 169.062 17.9178 169.254 18.8062C169.444 19.6945 169.541 20.9918 169.541 22.6981V32.8337H165.083V24.3525C165.083 21.7872 164.786 20.0289 164.196 19.076C163.603 18.124 162.581 17.648 161.131 17.648C159.645 17.648 158.576 18.1734 157.927 19.2235C157.277 20.2745 156.952 22.0763 156.952 24.6299V32.832H152.65V13.678H157.003Z" fill="white"/>
</svg>